<mxfile host="Electron" agent="Mozilla/5.0 (Windows NT 10.0; Win64; x64) AppleWebKit/537.36 (KHTML, like Gecko) draw.io/24.7.17 Chrome/128.0.6613.36 Electron/32.0.1 Safari/537.36" version="24.7.17">
  <diagram name="Page-1" id="UAmm0FpsKRJuYv6AeaOr">
    <mxGraphModel dx="712" dy="835" grid="1" gridSize="10" guides="1" tooltips="1" connect="1" arrows="1" fold="1" page="1" pageScale="1" pageWidth="827" pageHeight="1169" math="0" shadow="0">
      <root>
        <mxCell id="0" />
        <mxCell id="1" parent="0" />
        <mxCell id="FMLz3uaZ5IfwL3zqhrug-1" value="2048 GAME" style="swimlane;whiteSpace=wrap;html=1;startSize=20;fillColor=#FFFFFF;strokeColor=#000000;" vertex="1" parent="1">
          <mxGeometry x="100" y="100" width="450" height="590" as="geometry" />
        </mxCell>
        <mxCell id="FMLz3uaZ5IfwL3zqhrug-69" value="" style="rounded=0;whiteSpace=wrap;html=1;fillColor=#FFF2CC;" vertex="1" parent="FMLz3uaZ5IfwL3zqhrug-1">
          <mxGeometry y="20" width="450" height="120" as="geometry" />
        </mxCell>
        <mxCell id="FMLz3uaZ5IfwL3zqhrug-27" value="" style="rounded=0;whiteSpace=wrap;html=1;fillColor=#D5B08B;" vertex="1" parent="FMLz3uaZ5IfwL3zqhrug-1">
          <mxGeometry y="140" width="450" height="450" as="geometry" />
        </mxCell>
        <mxCell id="FMLz3uaZ5IfwL3zqhrug-2" value="" style="rounded=0;whiteSpace=wrap;html=1;" vertex="1" parent="FMLz3uaZ5IfwL3zqhrug-1">
          <mxGeometry x="10" y="150" width="100" height="100" as="geometry" />
        </mxCell>
        <mxCell id="FMLz3uaZ5IfwL3zqhrug-3" value="" style="rounded=0;whiteSpace=wrap;html=1;" vertex="1" parent="FMLz3uaZ5IfwL3zqhrug-1">
          <mxGeometry x="120" y="150" width="100" height="100" as="geometry" />
        </mxCell>
        <mxCell id="FMLz3uaZ5IfwL3zqhrug-7" value="" style="rounded=0;whiteSpace=wrap;html=1;" vertex="1" parent="FMLz3uaZ5IfwL3zqhrug-1">
          <mxGeometry x="230" y="150" width="100" height="100" as="geometry" />
        </mxCell>
        <mxCell id="FMLz3uaZ5IfwL3zqhrug-8" value="" style="rounded=0;whiteSpace=wrap;html=1;" vertex="1" parent="FMLz3uaZ5IfwL3zqhrug-1">
          <mxGeometry x="340" y="150" width="100" height="100" as="geometry" />
        </mxCell>
        <mxCell id="FMLz3uaZ5IfwL3zqhrug-13" value="" style="rounded=0;whiteSpace=wrap;html=1;fillColor=default;" vertex="1" parent="FMLz3uaZ5IfwL3zqhrug-1">
          <mxGeometry x="340" y="260" width="100" height="100" as="geometry" />
        </mxCell>
        <mxCell id="FMLz3uaZ5IfwL3zqhrug-12" value="" style="rounded=0;whiteSpace=wrap;html=1;" vertex="1" parent="FMLz3uaZ5IfwL3zqhrug-1">
          <mxGeometry x="230" y="260" width="100" height="100" as="geometry" />
        </mxCell>
        <mxCell id="FMLz3uaZ5IfwL3zqhrug-11" value="" style="rounded=0;whiteSpace=wrap;html=1;" vertex="1" parent="FMLz3uaZ5IfwL3zqhrug-1">
          <mxGeometry x="120" y="260" width="100" height="100" as="geometry" />
        </mxCell>
        <mxCell id="FMLz3uaZ5IfwL3zqhrug-10" value="" style="rounded=0;whiteSpace=wrap;html=1;" vertex="1" parent="FMLz3uaZ5IfwL3zqhrug-1">
          <mxGeometry x="10" y="260" width="100" height="100" as="geometry" />
        </mxCell>
        <mxCell id="FMLz3uaZ5IfwL3zqhrug-9" value="" style="rounded=0;whiteSpace=wrap;html=1;" vertex="1" parent="FMLz3uaZ5IfwL3zqhrug-1">
          <mxGeometry x="10" y="370" width="100" height="100" as="geometry" />
        </mxCell>
        <mxCell id="FMLz3uaZ5IfwL3zqhrug-20" value="" style="rounded=0;whiteSpace=wrap;html=1;" vertex="1" parent="FMLz3uaZ5IfwL3zqhrug-1">
          <mxGeometry x="120" y="370" width="100" height="100" as="geometry" />
        </mxCell>
        <mxCell id="FMLz3uaZ5IfwL3zqhrug-19" value="" style="rounded=0;whiteSpace=wrap;html=1;" vertex="1" parent="FMLz3uaZ5IfwL3zqhrug-1">
          <mxGeometry x="230" y="370" width="100" height="100" as="geometry" />
        </mxCell>
        <mxCell id="FMLz3uaZ5IfwL3zqhrug-18" value="" style="rounded=0;whiteSpace=wrap;html=1;" vertex="1" parent="FMLz3uaZ5IfwL3zqhrug-1">
          <mxGeometry x="340" y="370" width="100" height="100" as="geometry" />
        </mxCell>
        <mxCell id="FMLz3uaZ5IfwL3zqhrug-17" value="" style="rounded=0;whiteSpace=wrap;html=1;" vertex="1" parent="FMLz3uaZ5IfwL3zqhrug-1">
          <mxGeometry x="340" y="480" width="100" height="100" as="geometry" />
        </mxCell>
        <mxCell id="FMLz3uaZ5IfwL3zqhrug-15" value="" style="rounded=0;whiteSpace=wrap;html=1;" vertex="1" parent="FMLz3uaZ5IfwL3zqhrug-1">
          <mxGeometry x="230" y="480" width="100" height="100" as="geometry" />
        </mxCell>
        <mxCell id="FMLz3uaZ5IfwL3zqhrug-16" value="" style="rounded=0;whiteSpace=wrap;html=1;" vertex="1" parent="FMLz3uaZ5IfwL3zqhrug-1">
          <mxGeometry x="120" y="480" width="100" height="100" as="geometry" />
        </mxCell>
        <mxCell id="FMLz3uaZ5IfwL3zqhrug-14" value="" style="rounded=0;whiteSpace=wrap;html=1;" vertex="1" parent="FMLz3uaZ5IfwL3zqhrug-1">
          <mxGeometry x="10" y="480" width="100" height="100" as="geometry" />
        </mxCell>
        <mxCell id="FMLz3uaZ5IfwL3zqhrug-21" value="&lt;font style=&quot;font-size: 48px;&quot;&gt;&lt;b&gt;2&lt;/b&gt;&lt;/font&gt;" style="rounded=1;whiteSpace=wrap;html=1;fillColor=#F0F0EB;arcSize=0;" vertex="1" parent="FMLz3uaZ5IfwL3zqhrug-1">
          <mxGeometry x="10" y="150" width="100" height="100" as="geometry" />
        </mxCell>
        <mxCell id="FMLz3uaZ5IfwL3zqhrug-22" value="&lt;span style=&quot;font-size: 48px;&quot;&gt;&lt;b&gt;4&lt;/b&gt;&lt;/span&gt;" style="rounded=1;whiteSpace=wrap;html=1;fillColor=#FFF2CC;arcSize=0;" vertex="1" parent="FMLz3uaZ5IfwL3zqhrug-1">
          <mxGeometry x="230" y="260" width="100" height="100" as="geometry" />
        </mxCell>
        <mxCell id="FMLz3uaZ5IfwL3zqhrug-28" value="&lt;span style=&quot;font-size: 48px;&quot;&gt;&lt;b&gt;8&lt;/b&gt;&lt;/span&gt;" style="rounded=1;whiteSpace=wrap;html=1;fillColor=#FFB366;arcSize=0;" vertex="1" parent="FMLz3uaZ5IfwL3zqhrug-1">
          <mxGeometry x="10" y="370" width="100" height="100" as="geometry" />
        </mxCell>
        <mxCell id="FMLz3uaZ5IfwL3zqhrug-29" value="&lt;span style=&quot;font-size: 48px;&quot;&gt;&lt;b&gt;16&lt;/b&gt;&lt;/span&gt;" style="rounded=1;whiteSpace=wrap;html=1;fillColor=#FF8000;arcSize=0;" vertex="1" parent="FMLz3uaZ5IfwL3zqhrug-1">
          <mxGeometry x="230" y="370" width="100" height="100" as="geometry" />
        </mxCell>
        <mxCell id="FMLz3uaZ5IfwL3zqhrug-30" value="&lt;span style=&quot;font-size: 48px;&quot;&gt;&lt;b&gt;32&lt;/b&gt;&lt;/span&gt;" style="rounded=1;whiteSpace=wrap;html=1;fillColor=#FF6666;arcSize=0;" vertex="1" parent="FMLz3uaZ5IfwL3zqhrug-1">
          <mxGeometry x="120" y="480" width="100" height="100" as="geometry" />
        </mxCell>
        <mxCell id="FMLz3uaZ5IfwL3zqhrug-31" value="&lt;span style=&quot;font-size: 48px;&quot;&gt;&lt;b&gt;64&lt;/b&gt;&lt;/span&gt;" style="rounded=1;whiteSpace=wrap;html=1;fillColor=#FF0000;arcSize=0;" vertex="1" parent="FMLz3uaZ5IfwL3zqhrug-1">
          <mxGeometry x="230" y="480" width="100" height="100" as="geometry" />
        </mxCell>
        <mxCell id="FMLz3uaZ5IfwL3zqhrug-32" value="&lt;span style=&quot;font-size: 48px;&quot;&gt;&lt;b&gt;128&lt;/b&gt;&lt;/span&gt;" style="rounded=1;whiteSpace=wrap;html=1;fillColor=#FFFF66;arcSize=0;" vertex="1" parent="FMLz3uaZ5IfwL3zqhrug-1">
          <mxGeometry x="340" y="150" width="100" height="100" as="geometry" />
        </mxCell>
        <mxCell id="FMLz3uaZ5IfwL3zqhrug-33" value="&lt;span style=&quot;font-size: 48px;&quot;&gt;&lt;b&gt;256&lt;/b&gt;&lt;/span&gt;" style="rounded=1;whiteSpace=wrap;html=1;fillColor=#FFFF33;arcSize=0;" vertex="1" parent="FMLz3uaZ5IfwL3zqhrug-1">
          <mxGeometry x="340" y="370" width="100" height="100" as="geometry" />
        </mxCell>
        <mxCell id="FMLz3uaZ5IfwL3zqhrug-34" value="Nouveau" style="rounded=1;whiteSpace=wrap;html=1;fillColor=#DFC4A9;" vertex="1" parent="FMLz3uaZ5IfwL3zqhrug-1">
          <mxGeometry x="20" y="90" width="120" height="40" as="geometry" />
        </mxCell>
        <mxCell id="FMLz3uaZ5IfwL3zqhrug-62" value="STOP" style="rounded=1;whiteSpace=wrap;html=1;fillColor=#DFC4A9;" vertex="1" parent="FMLz3uaZ5IfwL3zqhrug-1">
          <mxGeometry x="165" y="90" width="120" height="40" as="geometry" />
        </mxCell>
        <mxCell id="FMLz3uaZ5IfwL3zqhrug-63" value="&lt;span style=&quot;font-size: 48px;&quot;&gt;&lt;b&gt;512&lt;/b&gt;&lt;/span&gt;" style="rounded=1;whiteSpace=wrap;html=1;fillColor=#CCFF99;arcSize=0;" vertex="1" parent="FMLz3uaZ5IfwL3zqhrug-1">
          <mxGeometry x="120" y="260" width="100" height="100" as="geometry" />
        </mxCell>
        <mxCell id="FMLz3uaZ5IfwL3zqhrug-64" value="&lt;b style=&quot;&quot;&gt;&lt;font style=&quot;font-size: 36px;&quot;&gt;1024&lt;/font&gt;&lt;/b&gt;" style="rounded=1;whiteSpace=wrap;html=1;fillColor=#B3FF66;arcSize=0;" vertex="1" parent="FMLz3uaZ5IfwL3zqhrug-1">
          <mxGeometry x="120" y="150" width="100" height="100" as="geometry" />
        </mxCell>
        <mxCell id="FMLz3uaZ5IfwL3zqhrug-65" value="&lt;span style=&quot;font-size: 36px;&quot;&gt;&lt;b&gt;2048&lt;/b&gt;&lt;/span&gt;" style="rounded=1;whiteSpace=wrap;html=1;fillColor=#33FF3A;arcSize=0;" vertex="1" parent="FMLz3uaZ5IfwL3zqhrug-1">
          <mxGeometry x="230" y="150" width="100" height="100" as="geometry" />
        </mxCell>
        <mxCell id="FMLz3uaZ5IfwL3zqhrug-66" value="&lt;span style=&quot;font-size: 36px;&quot;&gt;&lt;b&gt;4096&lt;/b&gt;&lt;/span&gt;" style="rounded=1;whiteSpace=wrap;html=1;fillColor=#99FFCC;arcSize=0;" vertex="1" parent="FMLz3uaZ5IfwL3zqhrug-1">
          <mxGeometry x="10" y="260" width="100" height="100" as="geometry" />
        </mxCell>
        <mxCell id="FMLz3uaZ5IfwL3zqhrug-67" value="&lt;span style=&quot;font-size: 36px;&quot;&gt;&lt;b&gt;8192&lt;/b&gt;&lt;/span&gt;" style="rounded=1;whiteSpace=wrap;html=1;fillColor=#66B2FF;arcSize=0;" vertex="1" parent="FMLz3uaZ5IfwL3zqhrug-1">
          <mxGeometry x="340" y="480" width="100" height="100" as="geometry" />
        </mxCell>
        <mxCell id="FMLz3uaZ5IfwL3zqhrug-68" value="SCORE : 0000" style="rounded=1;whiteSpace=wrap;html=1;fillColor=#DFC4A9;" vertex="1" parent="FMLz3uaZ5IfwL3zqhrug-1">
          <mxGeometry x="310" y="90" width="120" height="40" as="geometry" />
        </mxCell>
        <mxCell id="FMLz3uaZ5IfwL3zqhrug-71" value="&lt;font style=&quot;font-size: 48px;&quot;&gt;&lt;b&gt;2048 GAME&lt;/b&gt;&lt;/font&gt;" style="text;html=1;align=center;verticalAlign=middle;resizable=0;points=[];autosize=1;strokeColor=none;fillColor=none;" vertex="1" parent="FMLz3uaZ5IfwL3zqhrug-1">
          <mxGeometry x="80" y="20" width="290" height="70" as="geometry" />
        </mxCell>
      </root>
    </mxGraphModel>
  </diagram>
</mxfile>
